<?xml version="1.0" encoding="utf-8"?>
<!-- Generator: Adobe Illustrator 19.2.1, SVG Export Plug-In . SVG Version: 6.00 Build 0)  -->
<svg version="1.1" id="Layer_1" xmlns="http://www.w3.org/2000/svg" xmlns:xlink="http://www.w3.org/1999/xlink" x="0px" y="0px"
	 viewBox="0 0 50.7 50" style="enable-background:new 0 0 50.7 50;" xml:space="preserve">
<style type="text/css">
	.st0{fill:#3B3B3B;}
</style>
<g>
	<path class="st0" d="M50.7,25.4C50.7,11.4,39.4,0,25.4,0S0,11.4,0,25.4C0,34.2,4.6,42,11.4,46.6c1.3-2.5,2.7-5.1,4.1-7.6
		c1.1-2.1,1.5-4.3,1.6-6.6c0-0.4-0.1-0.6-0.4-0.8c-1.4-1.2-2.4-2.7-3-4.5c-0.6-1.8-0.7-3.7-0.3-5.6c0.3-1.3,0.7-2.6,1.7-3.5
		c2.5-2.4,5.5-3.3,8.9-3c1.5,0.2,3,0.6,4.4,1.2c0.9,0.4,1.7,0.8,2.4,1.4c1.2,1,1.9,2.4,2.3,3.9c0.3,1.4,0.4,2.8,0.5,4.2
		c0,0.3,0,0.7,0.2,1c0.4,0.7,0.8,1.4,1.3,2c0.3,0.4,0.7,0.7,0.9,1.2c0,0.2,0,0.3,0,0.5c-0.3,0.4-0.7,0.6-1.2,0.8
		c-0.4,0.2-0.4,0.1-0.3,0.6c0,0.1,0,0.1,0.1,0.2c0.2,0.7,0.1,0.8-0.5,1.1c0.1,0.1,0.1,0.2,0.2,0.3c0.1,0.2,0.2,0.4-0.1,0.6
		c-0.3,0.2-0.4,0.7-0.3,1.1c0.1,0.4,0.2,0.9,0.2,1.3c0,0.8-0.4,1.2-1,1.4c-0.7,0.1-1.3,0.2-2,0.3c-1,0.1-1.8,0.3-2.6,0.9
		c-0.3,0.2-0.5,0.5-0.5,0.8c0,0.3,0,0.6,0,0.9c0.1,1.1,0.2,2.2-0.2,3.2c-0.2,0.4-0.1,0.8,0.1,1.2c0.4,0.8,0.9,1.5,1.5,2.1
		c0.4,0.4,0.8,0.8,1.1,1.3c0.4,0.6,0.7,1.2,1.1,1.8C42.5,47.3,50.7,37.3,50.7,25.4z"/>
</g>
</svg>
