<?xml version="1.0" encoding="UTF-8" standalone="no"?>
<svg width="20px" height="20px" viewBox="0 0 20 20" version="1.1" xmlns="http://www.w3.org/2000/svg" xmlns:xlink="http://www.w3.org/1999/xlink">
    <!-- Generator: Sketch 3.8.3 (29802) - http://www.bohemiancoding.com/sketch -->
    <title>Shape</title>
    <desc>Created with Sketch.</desc>
    <defs>
        <linearGradient x1="50.7578127%" y1="-0.749999995%" x2="50.7578127%" y2="100.25%" id="linearGradient-1">
            <stop stop-color="#50EDAA" offset="0%"></stop>
            <stop stop-color="#53AEFE" offset="100%"></stop>
        </linearGradient>
    </defs>
    <g id="Desktop-02" stroke="none" stroke-width="1" fill="none" fill-rule="evenodd">
        <g id="snow-desktop-01" transform="translate(-531.000000, -10678.000000)" fill="url(#linearGradient-1)">
            <g id="shop" transform="translate(-1.000000, 10345.000000)">
                <g id="side-by-side" transform="translate(155.000000, 320.000000)">
                    <g id="mod-5-info" transform="translate(0.000000, 13.000000)">
                        <g id="features" transform="translate(377.000000, 0.000000)">
                            <path d="M10,0 C4.5,0 0,4.5 0,10 C0,15.5 4.5,20 10,20 C15.5,20 20,15.5 20,10 C20,4.5 15.5,0 10,0 L10,0 Z M8.33333333,15.3333333 L3.33333333,10.525641 L4.73333333,9.17948718 L8.33333333,12.6410256 L15.9333333,5.33333333 L17.3333333,6.67948718 L8.33333333,15.3333333 L8.33333333,15.3333333 Z" id="Shape"></path>
                        </g>
                    </g>
                </g>
            </g>
        </g>
    </g>
</svg>