<?xml version="1.0" encoding="utf-8"?>
<!-- Generator: Adobe Illustrator 19.2.1, SVG Export Plug-In . SVG Version: 6.00 Build 0)  -->
<svg version="1.1" id="Layer_1" xmlns="http://www.w3.org/2000/svg" xmlns:xlink="http://www.w3.org/1999/xlink" x="0px" y="0px"
	 viewBox="0 0 173.5 143.9" style="enable-background:new 0 0 173.5 143.9;" xml:space="preserve">
<style type="text/css">
	.st0{fill:#FBC129;}
	.st1{fill:#FFC425;}
</style>
<symbol  id="New_Symbol_3" viewBox="-18 -18 36 36">
	<path class="st0" d="M0,12.8c7.1,0,12.8-5.7,12.8-12.8S7.1-12.8,0-12.8c-7.1,0-12.8,5.7-12.8,12.8l-2.6,7.8L-18,0
		c0-10,8.1-18,18-18S18-10,18,0S10,18,0,18V12.8z"/>
</symbol>
<g>
	<g>
		<path class="st1" d="M51,43.6l1.2-7.4C55.8,16.3,74.8,0,94.8,0c17.7,0,30.1,12.7,30.3,29.5h10l-24,23.2L95.3,29.5h9.1
			c-1.3-6.1-5.9-11.2-12.1-13.5C67.6,6.8,52.6,34.6,51,43.6"/>
		<path class="st1" d="M122,100.3l-1.2,7.3c-3.5,20-22.6,36.2-42.5,36.2c-17.6,0-30.1-12.7-30.3-29.5h-10l24-23.2l15.8,23.2h-9.1
			c1.3,6.1,5.9,11.2,12.1,13.5C105.5,137.2,120.5,109.3,122,100.3"/>
		<path d="M86.6,90.1c-9.9,0-18-8.1-18-18c0-9.9,8-18,18-18c9.9,0,18,8.1,18,18C104.6,82,96.5,90.1,86.6,90.1 M136.8,48.5
			c-6.6,0-12.6,2.7-16.9,7.1c0,0,0,0,0,0l-10.2,10.2c-2.8-10.2-12-17.7-23-17.7c-12.7,0-23.1,10-23.8,22.6l-2.9,2.9
			c0-0.5,0.1-1,0.1-1.5C59.9,59,49.2,48.2,36,48.2c-3.6,0-7,0.8-10.2,2.3c-1.5,0.7-2.1,2.5-1.4,3.9c0.7,1.5,2.5,2.1,3.9,1.4
			c2.4-1.2,5-1.7,7.7-1.7c9.9,0,18,8.1,18,18c0,4.5-1.6,8.6-4.3,11.7l-0.5,0.5c-0.1,0.1-0.3,0.3-0.4,0.5c-3.3,3.3-7.8,5.4-12.8,5.4
			c-9.9,0-18-8.1-18-18V41.7c0-1.6-1.3-3-2.9-3s-3,1.3-3,3v30.5c0,13.2,10.7,23.9,23.9,23.9c7,0,13.4-3.1,17.7-8l9.8-9.8
			c2.8,10.2,12,17.7,23,17.7c12.7,0,23.1-10,23.8-22.6l2.6-2.6c0,0.5-0.1,1.1-0.1,1.6c0,13.2,10.7,23.9,23.9,23.9
			c3.5,0,7-0.8,10.2-2.3c1.5-0.7,2.1-2.5,1.4-3.9c-0.7-1.5-2.5-2.1-3.9-1.4c-2.4,1.1-5,1.7-7.6,1.7c-9.9,0-18-8.1-18-18
			c0-9.9,8.1-18,18-18c9.9,0,18,8.1,18,18l0,30.5c0,1.6,1.3,3,3,3c1.6,0,3-1.3,3-3V72.4C160.7,59.2,150,48.5,136.8,48.5"/>
		<path d="M168.9,91.3h0.7c0.4,0,0.7-0.1,0.7-0.5c0-0.5-0.5-0.5-0.8-0.5h-0.6V91.3z M168,89.5h1.7c1.1,0,1.6,0.5,1.6,1.3
			c0,0.7-0.5,1.1-1.1,1.2l1.1,1.7h-1l-1-1.7h-0.4v1.7H168V89.5z M169.5,94.4c1.6,0,2.8-1.3,2.8-2.8s-1.2-2.8-2.8-2.8
			c-1.6,0-2.8,1.3-2.8,2.8S168,94.4,169.5,94.4 M169.5,87.7c2.2,0,4,1.7,4,3.9c0,2.1-1.8,3.9-4,3.9c-2.2,0-4-1.7-4-3.9
			C165.6,89.5,167.4,87.7,169.5,87.7"/>
	</g>
</g>
</svg>
