<?xml version="1.0" encoding="utf-8"?>
<!-- Generator: Adobe Illustrator 19.2.1, SVG Export Plug-In . SVG Version: 6.00 Build 0)  -->
<svg version="1.1" id="Layer_1" xmlns="http://www.w3.org/2000/svg" xmlns:xlink="http://www.w3.org/1999/xlink" x="0px" y="0px"
	 viewBox="0 0 50.7 49.6" style="enable-background:new 0 0 50.7 49.6;" xml:space="preserve">
<style type="text/css">
	.st0{fill:#3B3B3B;}
</style>
<path class="st0" d="M25.4,0C11.4,0,0,11.4,0,25.4c0,8.4,4.1,15.8,10.3,20.4c1.4-2.6,2.8-5.2,4.2-7.8c1.4-2.6,1.9-5.4,2-8.2
	c0-0.4-0.1-0.7-0.5-1c-1.8-1.5-3-3.4-3.7-5.6c-0.7-2.2-0.8-4.6-0.4-6.9c0.3-1.7,0.9-3.2,2.1-4.4c3.1-3,6.8-4.1,11.1-3.7
	c1.9,0.2,3.7,0.7,5.5,1.4c1.1,0.4,2.1,1,3,1.7c1.5,1.3,2.4,2.9,2.8,4.8c0.4,1.7,0.5,3.5,0.6,5.2c0,0.4,0,0.9,0.2,1.2
	c0.5,0.9,1,1.7,1.6,2.5c0.4,0.5,0.9,0.9,1.1,1.5c0,0.2,0,0.4,0,0.6c-0.3,0.5-0.9,0.8-1.5,1c-0.5,0.2-0.5,0.2-0.4,0.7
	c0,0.1,0,0.1,0.1,0.2c0.2,0.9,0.2,1-0.6,1.4c0.1,0.1,0.2,0.3,0.2,0.4c0.1,0.3,0.2,0.5-0.1,0.7c-0.4,0.3-0.5,0.9-0.4,1.3
	c0.1,0.5,0.3,1.1,0.3,1.6c0,1-0.4,1.5-1.3,1.7c-0.8,0.2-1.7,0.3-2.5,0.3c-1.2,0.1-2.3,0.4-3.3,1.1c-0.4,0.3-0.6,0.6-0.6,1
	c0,0.4-0.1,0.7,0,1.1c0.1,1.4,0.3,2.7-0.3,4c-0.2,0.5-0.1,1,0.1,1.5c0.5,1,1.1,1.8,1.9,2.6c0.5,0.5,1,1,1.4,1.6c0,0,0,0.1,0.1,0.1
	c10.3-3.2,17.7-12.9,17.7-24.2C50.7,11.4,39.4,0,25.4,0z"/>
</svg>
