<?xml version="1.0" encoding="utf-8"?>
<!-- Generator: Adobe Illustrator 19.2.1, SVG Export Plug-In . SVG Version: 6.00 Build 0)  -->
<svg version="1.1" id="Layer_1" xmlns="http://www.w3.org/2000/svg" xmlns:xlink="http://www.w3.org/1999/xlink" x="0px" y="0px"
	 viewBox="0 0 115.7 40.1" style="enable-background:new 0 0 115.7 40.1;" xml:space="preserve">
<style type="text/css">
	.st0{fill:url(#SVGID_1_);}
</style>
<title>Shape Copy 268</title>
<desc>Created with Sketch.</desc>
<linearGradient id="SVGID_1_" gradientUnits="userSpaceOnUse" x1="57.8559" y1="1.9005" x2="57.8559" y2="61.2339">
	<stop  offset="0" style="stop-color:#50EDAA"/>
	<stop  offset="1" style="stop-color:#53AEFE"/>
</linearGradient>
<path class="st0" d="M115.7,9.8c0,0-56.3-21.8-115.6-0.4c0,0,0,0-0.1,0v30.7h11.2V15h0c0-4,2.2-5.6,4.9-5.6c2.7,0,4.9,2,4.9,5.3
	c0,0,0,0.1,0,0.1h0v25.3h10.3V15h0c0-4,2.2-5.6,4.9-5.6c2.7,0,4.9,2,4.9,5.3c0,0,0,0.1,0,0.1h0v25.3h50.9l10.3,0
	c6.7-0.1,11.6-4.6,11.6-10.6c0-6.3-5.1-10.5-12-10.3v0H89.1v0c-3.3-0.1-5.2-2.1-5.2-4.7c0-2.6,2-4.7,5.3-4.7L115.7,9.8z M88.1,24.9
	h12.5v0c3.3,0.1,5.2,2.1,5.2,4.7c0,2.6-2,4.7-5.3,4.7c0,0-0.1,0-0.1,0v0H81.6c0.9-1.5,1.4-3.2,1.4-5c0-2.4-0.9-4.6-2.3-6.5
	C82.8,24,85.3,24.9,88.1,24.9 M67.8,9.8c3.3,0.3,4.7,2.3,4.7,4.6c0,2.6-2,4.7-5.3,4.7c0,0-0.1,0-0.1,0v0H51.9V9.8H67.8z M67.1,34.2
	C67.1,34.2,67.1,34.2,67.1,34.2L67.1,34.2H51.9v-9.4h15.4v0c3.4-0.2,5.2,2.1,5.2,4.7C72.5,32.1,70.5,34.2,67.1,34.2"/>
</svg>
