<?xml version="1.0" encoding="utf-8"?>
<!-- Generator: Adobe Illustrator 19.2.1, SVG Export Plug-In . SVG Version: 6.00 Build 0)  -->
<svg version="1.1" id="Layer_1" xmlns="http://www.w3.org/2000/svg" xmlns:xlink="http://www.w3.org/1999/xlink" x="0px" y="0px"
	 viewBox="0 0 502 93.4" style="enable-background:new 0 0 502 93.4;" xml:space="preserve">
<style type="text/css">
	.st0{fill-rule:evenodd;clip-rule:evenodd;}
</style>
<g>
	<path class="st0" d="M392.4,60c-0.6,3.2-1.1,4-3.2,4.9c-2.1,1-3.7,1.1-15.6,1.1c-13.8,0-14.9-1-13.5-12.3c0.3-2.6,0.8-5.9,1.1-7
		c0.9-4.1,2.7-5.8,6.6-6.5c1.1-0.1,6.5-0.3,12.8-0.3c12.4,0,13.2,0.5,13.2,5h14.2l0.2-1.8c1-8.1-0.9-11.5-6.5-13.4
		c-3.2-1.2-8.4-1.5-23.8-1.5c-13.8,0-18.6,0.7-23.3,3.2c-5.5,2.9-7.5,7.5-9.1,20.5c-1.8,14.5-1,19.6,3.4,22.7
		c3.6,2.6,8.2,3.2,22,3.2c21.8,0,25.3-0.4,29.7-3.4c3.4-2.3,5-5.8,5.9-13.2l0.2-1.3H392.4z"/>
	<path class="st0" d="M72.4,28H25.5c-1.4,0-2.6,1.1-2.8,2.5l-5.4,43.9c-0.2,1.4,0.8,2.5,2.2,2.5h9.8c1.4,0,2.6-1.1,2.8-2.5l1.7-13.5
		c0.2-0.6,0.7-1,1.3-1h19.2h12.2c1.4,0,2.6-1.1,2.8-2.5l0.8-6.1c0.2-1.4-0.8-2.5-2.2-2.5H55.7H36.5c-0.6,0-1-0.5-1.1-1l0.9-7.7
		c0.2-0.6,0.7-1,1.3-1h25.5H71h0c1.4,0,2.6-1.1,2.8-2.5l0.8-6.1C74.8,29.1,73.8,28,72.4,28"/>
	<path class="st0" d="M81.5,74.4c-0.2,1.4,0.8,2.5,2.2,2.5h9.9c1.4,0,2.6-1.1,2.8-2.5l5.4-43.9c0.2-1.4-0.8-2.5-2.2-2.5h-9.9
		c-1.4,0-2.6,1.1-2.8,2.5L81.5,74.4z"/>
	<path class="st0" d="M177.2,32.5c-3-3.4-7.7-4.5-18-4.5h-39.7h-1.3c-0.7,0-1.3,0.6-1.4,1.2l-0.2,1.2v0l-2.7,22l-2.9,23.2
		c-0.1,0.7,0.4,1.2,1.1,1.2h1.3h41.7c10,0,13.5-0.9,17.1-4.2c4-3.7,5.6-8.3,7.1-20.2C180.8,41.1,180.2,35.9,177.2,32.5 M164.4,52.4
		c-1.1,8.6-2.3,11.1-6,12.2c-1.8,0.6-2.1,0.6-6.2,0.6h-23.7c-0.7,0-1.2-0.6-1.1-1.2l2.8-22.6c0.1-0.7,0.7-1.2,1.4-1.2h24
		C164.2,40.1,165.7,42.3,164.4,52.4"/>
	<path class="st0" d="M236.1,71.5l0.6-4.8c0.1-0.7-0.4-1.2-1.1-1.2h-1.3h-29.9c-0.7,0-1.2-0.6-1.1-1.2l4.2-34.3
		c0.1-0.7-0.4-1.2-1.1-1.2h-1.3h-9.9h-1.3c-0.7,0-1.3,0.6-1.4,1.2l-0.2,1.2v0l-2.7,22L187,76.3c-0.1,0.7,0.4,1.2,1.1,1.2h1.3h43.5
		h1.3c0.7,0,1.3-0.6,1.4-1.2l0.2-1.2c0,0,0,0,0,0L236.1,71.5z"/>
	<path class="st0" d="M482.7,28.6h-4.2h-11.3H466c-0.7,0-1.7,0.4-2.2,0.8l-5.2,4.2l-15.5,12.5c-0.6,0.4-1.5,0.7-2.1,0.7h-5.3
		c-0.7,0-1.2-0.6-1.1-1.2l1.6-12.7v0l0.2-1.8c0.2-1.4-0.8-2.5-2.2-2.5h-9.9c-1.4,0-2.6,1.1-2.8,2.5l-0.2,1.8v0l-1.4,11.7L416.2,75
		c-0.2,1.4,0.8,2.5,2.2,2.5h9.9c1.4,0,2.7-1.1,2.8-2.5l1.9-15.2c0.1-0.6,0.7-1.1,1.3-1.1h5c0.7,0,1.7,0.4,2.2,0.9l17.9,17
		c0.5,0.5,1.5,0.9,2.2,0.9h1.3h8.9h7.7c1.4,0,1.7-0.7,0.6-1.7l-24-21.4c-1-0.9-1-2.4,0.1-3.2l27.1-21.1
		C484.3,29.3,484.1,28.6,482.7,28.6"/>
	<path d="M313.4,36.1c-1.1-2.3-2.3-4.4-3.8-6.4c-1.4-1.9-3.2-3.4-5-4.8c-3.5-2.8-8.4-4.9-12.9-5.2c-5-0.4-9.6,0.2-14.3,2.2
		c-4.2,1.8-8.3,4.9-10.8,8.7c-1.4,2.1-2.6,4.2-3.6,6.6c-0.4,1-0.8,2.1-1,3.1c-0.1,0.3-0.4,1.9-0.4,1.9h-0.5h-17.7h-0.9
		c0.6-4.6,1.5-9.2,3.4-13.4c1.9-4.4,4.3-8.6,7.5-12.2c3.3-3.7,6.9-6.9,11.1-9.5c4.2-2.6,8.7-4.3,13.4-5.6c4.6-1.2,9.3-1.5,14.1-1.3
		c4.5,0.2,9.4,1.2,13.6,3c4.5,1.9,8.7,4,12.5,7.1c3.8,3,7.1,6.6,9.8,10.6c2.6,3.8,5.5,8.4,4.7,13.2c-0.8,5-5.3,8.2-10.2,8.2
		C318.2,42.1,315.2,39.4,313.4,36.1"/>
	<path d="M313.4,57.3c-1.1,2.3-2.3,4.4-3.8,6.4c-1.4,1.9-3.2,3.4-5,4.8c-3.5,2.8-8.4,4.9-12.9,5.2c-5,0.4-9.6-0.2-14.3-2.2
		c-4.2-1.8-8.3-4.9-10.8-8.7c-1.4-2.1-2.6-4.2-3.6-6.6c-0.4-1-0.8-2.1-1-3.1c-0.1-0.3-0.4-1.9-0.4-1.9h-0.5h-17.7h-0.9
		c0.6,4.6,1.5,9.2,3.4,13.4c1.9,4.4,4.3,8.6,7.5,12.2c3.3,3.7,6.9,6.9,11.1,9.5c4.2,2.6,8.7,4.3,13.4,5.6c4.6,1.2,9.3,1.5,14.1,1.3
		c4.5-0.2,9.4-1.2,13.6-3c4.5-1.9,8.7-4,12.5-7.1c3.8-3,7.1-6.6,9.8-10.6c2.6-3.8,5.5-8.4,4.7-13.2c-0.8-5-5.3-8.2-10.2-8.2
		C318.2,51.3,315.2,54,313.4,57.3"/>
	<path d="M491.9,73.4v2.7h-1.6v-8.3h4.2c1.8,0,2.5,0.6,2.5,2.5c0,1.2-0.1,2.1-1.5,2.3v0c1.1,0.1,1.4,0.7,1.4,1.9v1.5h-1.6v-1.5
		c0-0.7-0.3-1.2-1-1.2H491.9z M494,72.1c1.2,0,1.5-0.2,1.5-1.4c0-1.2-0.2-1.4-1.3-1.4h-2.2v2.8H494z"/>
	<path d="M493.4,80.9c-4.7,0-8.6-3.8-8.6-8.6c0-4.7,3.8-8.6,8.6-8.6c4.7,0,8.6,3.8,8.6,8.6C502,77,498.1,80.9,493.4,80.9
		 M493.4,65.4c-3.8,0-6.9,3.1-6.9,6.9c0,3.8,3.1,6.9,6.9,6.9c3.8,0,6.9-3.1,6.9-6.9C500.3,68.5,497.2,65.4,493.4,65.4"/>
</g>
</svg>
