<?xml version="1.0" encoding="UTF-8" standalone="no"?>
<svg width="299px" height="245px" viewBox="0 0 299 245" version="1.1" xmlns="http://www.w3.org/2000/svg" xmlns:xlink="http://www.w3.org/1999/xlink">
    <!-- Generator: Sketch 3.8.3 (29802) - http://www.bohemiancoding.com/sketch -->
    <title>Artboard</title>
    <desc>Created with Sketch.</desc>
    <defs>
        <polygon id="path-1" points="121.251323 243.74359 0 243.74359 0 0.510795993 121.251323 0.510795993 242.502647 0.510795993 242.502647 243.74359 121.251323 243.74359"></polygon>
        <polygon id="path-3" points="0 245 271 245 271 2 0 2"></polygon>
    </defs>
    <g id="Desktop-02" stroke="none" stroke-width="1" fill="none" fill-rule="evenodd">
        <g id="Artboard">
            <g id="Page-1" transform="translate(28.000000, 0.000000)">
                <g id="Group-3">
                    <mask id="mask-2" fill="white">
                        <use xlink:href="#path-1"></use>
                    </mask>
                    <g id="Clip-2"></g>
                    <path d="M121.241663,0.510795993 C54.285868,0.510795993 -6.63934425e-05,54.9581858 -6.63934425e-05,122.136849 C-6.63934425e-05,189.303526 54.285868,243.74359 121.241663,243.74359 C188.206753,243.74359 242.502647,189.303526 242.502647,122.136849 C242.502647,54.9581858 188.206753,0.510795993 121.241663,0.510795993 L121.241663,0.510795993 Z" id="Fill-1" fill="#FFF200" mask="url(#mask-2)"></path>
                </g>
                <path d="M259.061766,83.1197386 C260.512275,83.1197386 261.549491,82.1943251 261.549491,80.6507918 L261.549491,80.6168835 C261.549491,79.1425796 260.638654,78.2510744 259.074859,78.2510744 L256.091867,78.2510744 L256.091867,83.1197386 L259.061766,83.1197386 Z M255,77 L259.158543,77 C260.347186,77 261.300149,77.4457526 261.908133,78.1995055 C262.377215,78.7823041 262.653882,79.6222405 262.653882,80.5660211 L262.653882,80.5992229 C262.653882,82.5885089 261.549491,83.7548125 260.028962,84.096721 L263,89 L261.659361,89 L258.854551,84.3369047 L256.091867,84.3369047 L256.091867,89 L255,89 L255,77 Z" id="Fill-4" fill="#231F1F"></path>
                <path d="M259.50068,73.2804586 C253.864864,73.2804586 249.280496,77.8653704 249.280496,83.5003398 C249.280496,89.1353092 253.864864,93.7195414 259.50068,93.7195414 C265.135136,93.7195414 269.719504,89.1353092 269.719504,83.5003398 C269.719504,77.8653704 265.135136,73.2804586 259.50068,73.2804586 M259.50068,95 C253.159368,95 248,89.8414645 248,83.5003398 C248,77.1592152 253.159368,72 259.50068,72 C265.841312,72 271,77.1592152 271,83.5003398 C271,89.8414645 265.841312,95 259.50068,95" id="Fill-6" fill="#231F1F"></path>
                <path d="M132,120.510213 C132.027115,110.837315 139.620074,103.017702 149.013227,103 C158.394476,103.017702 165.987434,110.837315 166,120.510213 C165.987434,130.168132 158.394476,137.980255 149.013227,138 C139.620074,137.980255 132.027115,130.168132 132,120.510213" id="Fill-8" fill="#231F1F"></path>
                <path d="M91.852965,151 L87.0030618,124.906931 L80.977244,141.189253 C78.399761,148.057957 74.7462863,151 69.4060327,151 C63.8626244,151 60.405687,148.057957 57.8321745,141.189253 L51.7937836,124.906931 L47.0530677,151 L36,151 L49.2004188,100.097149 L67.8707925,138.759869 C68.1970311,139.441882 68.8905361,139.881022 69.6581562,139.881022 C70.4165119,139.881022 71.1093552,139.441882 71.4415495,138.759869 L90.0960414,100 L103,151 L91.852965,151 Z" id="Fill-12" fill="#231F1F"></path>
                <path d="M113,153 L107.322008,153 L92.7731904,94.6705675 C92.5658722,93.8631031 91.8781341,93.2529892 91.0435457,93.178063 C90.2189244,93.0977848 89.4122442,93.5493494 89.0520953,94.3113228 L69.7455923,135.033082 L50.4337734,94.4297331 C50.0643218,93.6731115 49.2742536,93.2161951 48.4416585,93.3018251 C47.6123859,93.3821032 46.9219899,93.9828514 46.7106849,94.7970056 L31.8515549,153 L23,153 L36.3162045,92.9024413 C38.302339,83.9975879 43.3630283,82 48.1306813,82 C52.9933552,82 56.972269,85.1890494 60.9478604,92.9024413 L69.4924249,109.602303 L78.0270222,92.9024413 C82.1953132,84.7997004 86.066581,82 90.8435368,82 C95.7108621,82 100.773545,84.4003166 102.658014,92.9024413 L104.64149,101.76448 L104.64149,89.9983794 L113,89.9983794 L113,153 Z" id="Fill-14" fill="#231F1F"></path>
                <path d="M107,74.9954306 C107,70.0239016 111.042164,66 116.004216,66 C120.973999,66 125,70.0239016 125,74.9954306 C125,79.9655536 120.973999,84 116.004216,84 C111.042164,84 107,79.9655536 107,74.9954306" id="Fill-16" fill="#231F1F"></path>
                <mask id="mask-4" fill="white">
                    <use xlink:href="#path-3"></use>
                </mask>
                <g id="Clip-19"></g>
                <polygon id="Fill-18" fill="#231F1F" mask="url(#mask-4)" points="118 168 128 168 128 89 118 89"></polygon>
                <path d="M190.154579,127.959452 L190.154579,128.154076 L177.851352,128.154076 C178.151285,126.936343 178.387374,125.711945 178.527697,124.440224 C181.992552,125.995216 186.035325,127.010327 190.154579,127.959452 M178.879503,107.984501 C179.749374,103.665449 182.702814,101.085348 185.487333,99.9069402 C188.287813,98.6932066 191.000509,98.5699003 192.29667,98.5565699 C192.611234,98.5565699 192.849318,98.5699003 192.973015,98.5699003 L216,98.5699003 L216,89 L194.227279,89 C182.617023,89 175.160603,93.7242968 171.516853,100.026247 C165.951804,93.2404029 157.91547,89 149.782704,89 C145.223195,89 141.048078,90.0904274 138.86675,91.2948298 L138.86675,89 L131,89 L131,108.056485 C134.905111,102.695662 141.188402,99.2057608 148.319618,99.2057608 C160.143351,99.2057608 169.731222,108.815652 169.731222,120.683715 C169.731222,132.531116 160.143351,142.148339 148.319618,142.148339 C141.188402,142.148339 134.905111,138.64844 131,133.30028 L131,168 L138.86675,168 L138.86675,149.672688 C141.937901,150.97107 145.511157,151.769561 149.698909,151.769561 C157.630168,151.769561 165.179694,147.994389 170.626365,141.91439 L173.420195,138.175211 L173.867767,138.175211 C173.867767,138.175211 195.692361,137.867278 195.756204,137.867278 C195.793447,137.881942 195.93111,137.881942 195.93111,137.881942 C196.550261,137.881942 197.726051,137.709313 198.650455,137.512023 C199.600131,137.312733 200.311058,137.12744 200.311058,137.12744 L200.394188,137.112777 L200.446061,137.103446 C203.620294,136.44759 204.90648,135.1852 205.627382,134.069445 C206.35028,132.947691 206.411464,131.771949 206.411464,131.471348 L206.411464,131.402696 L206.404813,131.230068 L206.411464,131.059438 C206.43873,130.870147 206.451366,130.694852 206.451366,130.534887 C206.537156,127.919461 204.009342,125.985218 203.374894,125.6153 L203.301075,125.568643 L203.05235,125.435339 L202.856164,125.241382 C202.779684,125.122741 201.643132,124.469551 200.227263,123.946999 C198.80807,123.405118 197.045051,122.845241 195.348535,122.359347 C191.95218,121.383561 188.845781,120.683715 188.839131,120.683715 L188.694152,120.649056 L188.553829,120.597734 C180.426384,117.704369 178.596861,112.291556 178.711913,109.590149 C178.711913,108.791658 178.812999,108.237779 178.879503,107.984501" id="Fill-20" fill="#231F1F" mask="url(#mask-4)"></path>
                <path d="M199.224143,113.935503 L199.224143,113.730312 L217.020325,113.730312 L217.020325,104.018827 L193.867604,104.018827 L193.773863,104.008801 C193.773863,104.018827 193.653528,104.000112 193.323772,104.000112 C192.367746,103.995434 190.167157,104.133787 188.247792,104.997996 C186.317789,105.888939 184.76408,107.16754 184.139804,110.022169 L184.124513,110.12443 C184.112546,110.12443 184.112546,110.154507 184.112546,110.20664 C184.095261,110.297539 184.075316,110.467975 184.075316,110.703242 C184.193656,111.943746 184.274765,114.963463 191.000855,117.610895 C192.127078,117.88025 198.427676,119.353348 202.810903,121.036316 C204.3327,121.644537 205.581252,122.168542 206.648305,123.038098 C207.066483,123.300101 208.05708,123.965134 209.101529,125.079314 C210.384652,126.478223 211.798746,128.722625 211.798746,131.705581 C211.798746,131.967584 211.778801,132.232261 211.771488,132.488917 L211.771488,132.644648 C211.771488,133.446029 211.639187,135.439791 210.330801,137.565891 C209.040365,139.70068 206.442207,141.764621 202.326907,142.56266 C200.07712,143.07664 197.9603,143.294531 197.9603,143.294531 C197.643176,143.294531 195.993732,143.351343 195.993732,143.351343 L172,143.71427 L172,153 L194.757147,153 C211.950992,153 221,144.315139 221,132.123316 C221,120.123984 211.149872,116.224018 199.224143,113.935503" id="Fill-21" fill="#231F1F" mask="url(#mask-4)"></path>
            </g>
        </g>
    </g>
</svg>