<?xml version="1.0" encoding="UTF-8" standalone="no"?>
<svg width="683px" height="327px" viewBox="0 0 683 327" version="1.1" xmlns="http://www.w3.org/2000/svg" xmlns:xlink="http://www.w3.org/1999/xlink">
    <!-- Generator: Sketch 39 (31667) - http://www.bohemiancoding.com/sketch -->
    <title>logo-mod-white</title>
    <desc>Created with Sketch.</desc>
    <defs></defs>
    <g id="Page-1" stroke="none" stroke-width="1" fill="none" fill-rule="evenodd">
        <g id="logo-mod-white" fill="#FFFFFF">
            <path d="M44.3271484,327 L35.8818359,327 L35.8818359,296.110352 L8.98535156,296.110352 L8.98535156,327 L0.5859375,327 L0.5859375,260.171875 L8.98535156,260.171875 L8.98535156,288.904297 L35.8818359,288.904297 L35.8818359,260.171875 L44.3271484,260.171875 L44.3271484,327 Z M165.914062,296.110352 L142.276367,296.110352 L142.276367,319.793945 L169.81543,319.793945 L169.81543,327 L133.876953,327 L133.876953,260.171875 L169.356445,260.171875 L169.356445,267.423828 L142.276367,267.423828 L142.276367,288.904297 L165.914062,288.904297 L165.914062,296.110352 Z M264.000977,319.793945 L290.208984,319.793945 L290.208984,327 L255.555664,327 L255.555664,260.171875 L264.000977,260.171875 L264.000977,319.793945 Z M386.046875,260.171875 L403.488281,314.699219 L420.929688,260.171875 L431.761719,260.171875 L431.761719,327 L423.362305,327 L423.362305,300.975586 L424.142578,274.905273 L406.655273,327 L400.229492,327 L382.833984,275.088867 L383.614258,300.975586 L383.614258,327 L375.214844,327 L375.214844,260.171875 L386.046875,260.171875 Z M553.256836,296.110352 L529.619141,296.110352 L529.619141,319.793945 L557.158203,319.793945 L557.158203,327 L521.219727,327 L521.219727,260.171875 L556.699219,260.171875 L556.699219,267.423828 L529.619141,267.423828 L529.619141,288.904297 L553.256836,288.904297 L553.256836,296.110352 Z M681.958008,267.423828 L664.378906,267.423828 L664.378906,327 L655.979492,327 L655.979492,267.423828 L638.446289,267.423828 L638.446289,260.171875 L681.958008,260.171875 L681.958008,267.423828 Z" id="HELMET"></path>
            <path d="M566.4,3.7 L475.3,3.4 L475.8,71.4 C457.3,29.4 415.4,0 366.8,0 C357.5,0 348.5,1.1 339.9,3.1 C338.1,3.5 336.2,4 334.4,4.5 C299.8,14.3 271.6,39.5 257.6,72.1 L257.6,4.5 L228.8,4.5 L128.5,193.5 L29.9,4.5 L0,4.5 L0,230.3 L30.7,230.3 L30.7,72.6 L113,230.3 L143.7,230.3 L226.7,73.8 L226.7,230.3 L257.4,230.3 L257.4,165.5 C275.6,207.9 317.7,237.6 366.7,237.6 C415.9,237.6 458.2,207.5 476.2,164.8 L476.6,229.4 L566.1,229.6 L566.1,229.6 C630.5,229.6 682.9,178.8 682.9,116.3 C683.1,54.2 630.7,3.7 566.4,3.7 M366.8,206.9 C318.2,206.9 278.7,167.4 278.7,118.8 C278.7,70.2 318.2,30.7 366.8,30.7 C415.4,30.7 454.9,70.2 454.9,118.8 C454.8,167.4 415.3,206.9 366.8,206.9 M566.3,198.9 L507.3,198.7 L507.1,169.2 L506.2,42.4 L506.1,34.2 L566.2,34.4 C613.7,34.4 652.3,71.2 652.3,116.4 C652.4,161.9 613.8,198.9 566.3,198.9" id="Shape"></path>
        </g>
    </g>
</svg>